solid Extrusion_Wake
 facet normal  0.000000e+00  0.000000e+00  1.000000e+00
   outer loop
     vertex  4.980973e-01  0.000000e+00 -4.357787e-02
     vertex  4.983966e-01  3.681690e-04 -4.357787e-02
     vertex  4.980973e-01  1.000000e-03 -4.357787e-02
   endloop
 endfacet
 facet normal  0.000000e+00  0.000000e+00  1.000000e+00
   outer loop
     vertex  5.049810e+01  1.000000e-03 -4.357787e-02
     vertex  5.049778e+01  3.870217e-04 -4.357787e-02
     vertex  5.049810e+01  0.000000e+00 -4.357787e-02
   endloop
 endfacet
 facet normal  0.000000e+00  0.000000e+00  1.000000e+00
   outer loop
     vertex  5.039805e+01  0.000000e+00 -4.357787e-02
     vertex  5.044807e+01  0.000000e+00 -4.357787e-02
     vertex  5.039805e+01  1.000000e-03 -4.357787e-02
   endloop
 endfacet
 facet normal  0.000000e+00  0.000000e+00  1.000000e+00
   outer loop
     vertex  5.044807e+01  1.000000e-03 -4.357787e-02
     vertex  5.039805e+01  1.000000e-03 -4.357787e-02
     vertex  5.044807e+01  0.000000e+00 -4.357787e-02
   endloop
 endfacet
 facet normal -0.000000e+00  0.000000e+00  1.000000e+00
   outer loop
     vertex  3.304878e+01  1.000000e-03 -4.357787e-02
     vertex  3.304878e+01  0.000000e+00 -4.357787e-02
     vertex  3.504969e+01  1.000000e-03 -4.357787e-02
   endloop
 endfacet
 facet normal -0.000000e+00  0.000000e+00  1.000000e+00
   outer loop
     vertex  4.505421e+01  1.000000e-03 -4.357787e-02
     vertex  4.505421e+01  0.000000e+00 -4.357787e-02
     vertex  4.677173e+01  1.000000e-03 -4.357787e-02
   endloop
 endfacet
 facet normal  0.000000e+00  0.000000e+00  1.000000e+00
   outer loop
     vertex  4.505421e+01  1.000000e-03 -4.357787e-02
     vertex  4.305330e+01  1.000000e-03 -4.357787e-02
     vertex  4.305330e+01  0.000000e+00 -4.357787e-02
   endloop
 endfacet
 facet normal  0.000000e+00  0.000000e+00  1.000000e+00
   outer loop
     vertex  4.305330e+01  1.000000e-03 -4.357787e-02
     vertex  4.105240e+01  1.000000e-03 -4.357787e-02
     vertex  4.105240e+01  0.000000e+00 -4.357787e-02
   endloop
 endfacet
 facet normal  0.000000e+00  0.000000e+00  1.000000e+00
   outer loop
     vertex  3.705059e+01  1.000000e-03 -4.357787e-02
     vertex  3.504969e+01  1.000000e-03 -4.357787e-02
     vertex  3.504969e+01  0.000000e+00 -4.357787e-02
   endloop
 endfacet
 facet normal  0.000000e+00  0.000000e+00  1.000000e+00
   outer loop
     vertex  3.304878e+01  1.000000e-03 -4.357787e-02
     vertex  3.104788e+01  1.000000e-03 -4.357787e-02
     vertex  3.104788e+01  0.000000e+00 -4.357787e-02
   endloop
 endfacet
 facet normal  0.000000e+00 -0.000000e+00  1.000000e+00
   outer loop
     vertex  5.981443e-01  0.000000e+00 -4.357787e-02
     vertex  5.981443e-01  1.000000e-03 -4.357787e-02
     vertex  5.481200e-01  0.000000e+00 -4.357787e-02
   endloop
 endfacet
 facet normal -0.000000e+00  0.000000e+00  1.000000e+00
   outer loop
     vertex  5.481200e-01  1.000000e-03 -4.357787e-02
     vertex  5.481200e-01  0.000000e+00 -4.357787e-02
     vertex  5.981443e-01  1.000000e-03 -4.357787e-02
   endloop
 endfacet
 facet normal  0.000000e+00  0.000000e+00  1.000000e+00
   outer loop
     vertex  3.104788e+01  1.000000e-03 -4.357787e-02
     vertex  2.904697e+01  1.000000e-03 -4.357787e-02
     vertex  2.904697e+01  0.000000e+00 -4.357787e-02
   endloop
 endfacet
 facet normal  0.000000e+00  0.000000e+00  1.000000e+00
   outer loop
     vertex  2.304426e+01  1.000000e-03 -4.357787e-02
     vertex  2.104336e+01  1.000000e-03 -4.357787e-02
     vertex  2.104336e+01  0.000000e+00 -4.357787e-02
   endloop
 endfacet
 facet normal  0.000000e+00  0.000000e+00  1.000000e+00
   outer loop
     vertex  2.104336e+01  1.000000e-03 -4.357787e-02
     vertex  1.904245e+01  1.000000e-03 -4.357787e-02
     vertex  1.904245e+01  0.000000e+00 -4.357787e-02
   endloop
 endfacet
 facet normal  0.000000e+00 -0.000000e+00  1.000000e+00
   outer loop
     vertex  5.481200e-01  0.000000e+00 -4.357787e-02
     vertex  5.481200e-01  1.000000e-03 -4.357787e-02
     vertex  5.105137e-01  4.185371e-04 -4.357787e-02
   endloop
 endfacet
 facet normal -0.000000e+00  0.000000e+00  1.000000e+00
   outer loop
     vertex  5.981443e-01  1.000000e-03 -4.357787e-02
     vertex  5.981443e-01  0.000000e+00 -4.357787e-02
     vertex  6.510342e-01  1.000000e-03 -4.357787e-02
   endloop
 endfacet
 facet normal  0.000000e+00  0.000000e+00  1.000000e+00
   outer loop
     vertex  1.904245e+01  1.000000e-03 -4.357787e-02
     vertex  1.704155e+01  1.000000e-03 -4.357787e-02
     vertex  1.704155e+01  0.000000e+00 -4.357787e-02
   endloop
 endfacet
 facet normal  0.000000e+00  0.000000e+00  1.000000e+00
   outer loop
     vertex  4.983966e-01  3.681690e-04 -4.357787e-02
     vertex  4.989632e-01  4.951938e-04 -4.357787e-02
     vertex  4.986308e-01  6.990538e-04 -4.357787e-02
   endloop
 endfacet
 facet normal  0.000000e+00  0.000000e+00  1.000000e+00
   outer loop
     vertex  5.981443e-01  0.000000e+00 -4.357787e-02
     vertex  6.510342e-01  0.000000e+00 -4.357787e-02
     vertex  6.510342e-01  1.000000e-03 -4.357787e-02
   endloop
 endfacet
 facet normal  0.000000e+00 -0.000000e+00  1.000000e+00
   outer loop
     vertex  5.039805e+01  0.000000e+00 -4.357787e-02
     vertex  5.039805e+01  1.000000e-03 -4.357787e-02
     vertex  5.034798e+01  0.000000e+00 -4.357787e-02
   endloop
 endfacet
 facet normal  0.000000e+00  0.000000e+00  1.000000e+00
   outer loop
     vertex  1.704155e+01  1.000000e-03 -4.357787e-02
     vertex  1.504064e+01  1.000000e-03 -4.357787e-02
     vertex  1.504064e+01  0.000000e+00 -4.357787e-02
   endloop
 endfacet
 facet normal  0.000000e+00  0.000000e+00  1.000000e+00
   outer loop
     vertex  1.504064e+01  1.000000e-03 -4.357787e-02
     vertex  1.303974e+01  1.000000e-03 -4.357787e-02
     vertex  1.303974e+01  0.000000e+00 -4.357787e-02
   endloop
 endfacet
 facet normal  0.000000e+00  0.000000e+00  1.000000e+00
   outer loop
     vertex  4.980973e-01  1.000000e-03 -4.357787e-02
     vertex  4.983966e-01  3.681690e-04 -4.357787e-02
     vertex  4.986308e-01  6.990538e-04 -4.357787e-02
   endloop
 endfacet
 facet normal -0.000000e+00  0.000000e+00  1.000000e+00
   outer loop
     vertex  5.049726e+01  5.106044e-04 -4.357787e-02
     vertex  5.049778e+01  3.870217e-04 -4.357787e-02
     vertex  5.049742e+01  7.427659e-04 -4.357787e-02
   endloop
 endfacet
 facet normal -0.000000e+00  0.000000e+00  1.000000e+00
   outer loop
     vertex  4.677173e+01  1.000000e-03 -4.357787e-02
     vertex  4.677173e+01  0.000000e+00 -4.357787e-02
     vertex  4.794189e+01  1.000000e-03 -4.357787e-02
   endloop
 endfacet
 facet normal -0.000000e+00  0.000000e+00  1.000000e+00
   outer loop
     vertex  3.705059e+01  1.000000e-03 -4.357787e-02
     vertex  3.905150e+01  0.000000e+00 -4.357787e-02
     vertex  3.905150e+01  1.000000e-03 -4.357787e-02
   endloop
 endfacet
 facet normal  0.000000e+00  0.000000e+00  1.000000e+00
   outer loop
     vertex  3.905150e+01  0.000000e+00 -4.357787e-02
     vertex  4.105240e+01  1.000000e-03 -4.357787e-02
     vertex  3.905150e+01  1.000000e-03 -4.357787e-02
   endloop
 endfacet
 facet normal -0.000000e+00  0.000000e+00  1.000000e+00
   outer loop
     vertex  2.704607e+01  1.000000e-03 -4.357787e-02
     vertex  2.704607e+01  0.000000e+00 -4.357787e-02
     vertex  2.904697e+01  1.000000e-03 -4.357787e-02
   endloop
 endfacet
 facet normal  0.000000e+00 -0.000000e+00  1.000000e+00
   outer loop
     vertex  2.304426e+01  0.000000e+00 -4.357787e-02
     vertex  2.304426e+01  1.000000e-03 -4.357787e-02
     vertex  2.104336e+01  0.000000e+00 -4.357787e-02
   endloop
 endfacet
 facet normal -0.000000e+00  0.000000e+00  1.000000e+00
   outer loop
     vertex  6.510342e-01  1.000000e-03 -4.357787e-02
     vertex  6.510342e-01  0.000000e+00 -4.357787e-02
     vertex  7.315390e-01  1.000000e-03 -4.357787e-02
   endloop
 endfacet
 facet normal -0.000000e+00  0.000000e+00  1.000000e+00
   outer loop
     vertex  1.103884e+01  1.000000e-03 -4.357787e-02
     vertex  1.103884e+01  0.000000e+00 -4.357787e-02
     vertex  1.303974e+01  1.000000e-03 -4.357787e-02
   endloop
 endfacet
 facet normal -0.000000e+00  0.000000e+00  1.000000e+00
   outer loop
     vertex  2.504517e+01  1.000000e-03 -4.357787e-02
     vertex  2.504517e+01  0.000000e+00 -4.357787e-02
     vertex  2.704607e+01  1.000000e-03 -4.357787e-02
   endloop
 endfacet
 facet normal  0.000000e+00  0.000000e+00  1.000000e+00
   outer loop
     vertex  2.304426e+01  0.000000e+00 -4.357787e-02
     vertex  2.504517e+01  1.000000e-03 -4.357787e-02
     vertex  2.304426e+01  1.000000e-03 -4.357787e-02
   endloop
 endfacet
 facet normal  0.000000e+00  0.000000e+00  1.000000e+00
   outer loop
     vertex  5.049726e+01  5.106044e-04 -4.357787e-02
     vertex  5.049659e+01  5.146363e-04 -4.357787e-02
     vertex  5.049723e+01  2.760787e-04 -4.357787e-02
   endloop
 endfacet
 facet normal  0.000000e+00  0.000000e+00  1.000000e+00
   outer loop
     vertex  5.049723e+01  2.760787e-04 -4.357787e-02
     vertex  5.049659e+01  5.146363e-04 -4.357787e-02
     vertex  5.049585e+01  3.124417e-04 -4.357787e-02
   endloop
 endfacet
 facet normal -0.000000e+00  0.000000e+00  1.000000e+00
   outer loop
     vertex  5.049659e+01  5.146363e-04 -4.357787e-02
     vertex  5.049726e+01  5.106044e-04 -4.357787e-02
     vertex  5.049742e+01  7.427659e-04 -4.357787e-02
   endloop
 endfacet
 facet normal -0.000000e+00  0.000000e+00  1.000000e+00
   outer loop
     vertex  9.037931e+00  1.000000e-03 -4.357787e-02
     vertex  9.037931e+00  0.000000e+00 -4.357787e-02
     vertex  1.103884e+01  1.000000e-03 -4.357787e-02
   endloop
 endfacet
 facet normal  0.000000e+00 -0.000000e+00  1.000000e+00
   outer loop
     vertex  3.705059e+01  0.000000e+00 -4.357787e-02
     vertex  3.705059e+01  1.000000e-03 -4.357787e-02
     vertex  3.504969e+01  0.000000e+00 -4.357787e-02
   endloop
 endfacet
 facet normal  0.000000e+00 -0.000000e+00  1.000000e+00
   outer loop
     vertex  3.304878e+01  0.000000e+00 -4.357787e-02
     vertex  3.304878e+01  1.000000e-03 -4.357787e-02
     vertex  3.104788e+01  0.000000e+00 -4.357787e-02
   endloop
 endfacet
 facet normal  0.000000e+00 -0.000000e+00  1.000000e+00
   outer loop
     vertex  3.104788e+01  0.000000e+00 -4.357787e-02
     vertex  3.104788e+01  1.000000e-03 -4.357787e-02
     vertex  2.904697e+01  0.000000e+00 -4.357787e-02
   endloop
 endfacet
 facet normal  0.000000e+00  0.000000e+00  1.000000e+00
   outer loop
     vertex  5.049726e+01  5.106044e-04 -4.357787e-02
     vertex  5.049723e+01  2.760787e-04 -4.357787e-02
     vertex  5.049778e+01  3.870217e-04 -4.357787e-02
   endloop
 endfacet
 facet normal  0.000000e+00  0.000000e+00  1.000000e+00
   outer loop
     vertex  5.049585e+01  3.124417e-04 -4.357787e-02
     vertex  5.049659e+01  5.146363e-04 -4.357787e-02
     vertex  5.049586e+01  5.378858e-04 -4.357787e-02
   endloop
 endfacet
 facet normal  0.000000e+00  0.000000e+00  1.000000e+00
   outer loop
     vertex  5.049742e+01  7.427659e-04 -4.357787e-02
     vertex  5.049628e+01  7.567735e-04 -4.357787e-02
     vertex  5.049659e+01  5.146363e-04 -4.357787e-02
   endloop
 endfacet
 facet normal -0.000000e+00  0.000000e+00  1.000000e+00
   outer loop
     vertex  5.049723e+01  2.760787e-04 -4.357787e-02
     vertex  5.049810e+01  0.000000e+00 -4.357787e-02
     vertex  5.049778e+01  3.870217e-04 -4.357787e-02
   endloop
 endfacet
 facet normal  0.000000e+00 -0.000000e+00  1.000000e+00
   outer loop
     vertex  2.104336e+01  0.000000e+00 -4.357787e-02
     vertex  2.104336e+01  1.000000e-03 -4.357787e-02
     vertex  1.904245e+01  0.000000e+00 -4.357787e-02
   endloop
 endfacet
 facet normal  0.000000e+00  0.000000e+00  1.000000e+00
   outer loop
     vertex  5.049810e+01  0.000000e+00 -4.357787e-02
     vertex  5.049723e+01  2.760787e-04 -4.357787e-02
     vertex  5.049585e+01  3.124417e-04 -4.357787e-02
   endloop
 endfacet
 facet normal  0.000000e+00 -0.000000e+00  1.000000e+00
   outer loop
     vertex  1.904245e+01  0.000000e+00 -4.357787e-02
     vertex  1.904245e+01  1.000000e-03 -4.357787e-02
     vertex  1.704155e+01  0.000000e+00 -4.357787e-02
   endloop
 endfacet
 facet normal  0.000000e+00 -0.000000e+00  1.000000e+00
   outer loop
     vertex  1.704155e+01  0.000000e+00 -4.357787e-02
     vertex  1.704155e+01  1.000000e-03 -4.357787e-02
     vertex  1.504064e+01  0.000000e+00 -4.357787e-02
   endloop
 endfacet
 facet normal  0.000000e+00 -0.000000e+00  1.000000e+00
   outer loop
     vertex  1.504064e+01  0.000000e+00 -4.357787e-02
     vertex  1.504064e+01  1.000000e-03 -4.357787e-02
     vertex  1.303974e+01  0.000000e+00 -4.357787e-02
   endloop
 endfacet
 facet normal  0.000000e+00 -0.000000e+00  1.000000e+00
   outer loop
     vertex  4.989774e-01  1.932564e-04 -4.357787e-02
     vertex  4.993926e-01  4.076509e-04 -4.357787e-02
     vertex  4.989632e-01  4.951938e-04 -4.357787e-02
   endloop
 endfacet
 facet normal  0.000000e+00  0.000000e+00  1.000000e+00
   outer loop
     vertex  4.989632e-01  4.951938e-04 -4.357787e-02
     vertex  4.983966e-01  3.681690e-04 -4.357787e-02
     vertex  4.989774e-01  1.932564e-04 -4.357787e-02
   endloop
 endfacet
 facet normal  0.000000e+00  0.000000e+00  1.000000e+00
   outer loop
     vertex  4.989774e-01  1.932564e-04 -4.357787e-02
     vertex  4.983966e-01  3.681690e-04 -4.357787e-02
     vertex  4.980973e-01  0.000000e+00 -4.357787e-02
   endloop
 endfacet
 facet normal  0.000000e+00 -0.000000e+00  1.000000e+00
   outer loop
     vertex  4.305330e+01  0.000000e+00 -4.357787e-02
     vertex  4.305330e+01  1.000000e-03 -4.357787e-02
     vertex  4.105240e+01  0.000000e+00 -4.357787e-02
   endloop
 endfacet
 facet normal  0.000000e+00  0.000000e+00  1.000000e+00
   outer loop
     vertex  5.044807e+01  1.000000e-03 -4.357787e-02
     vertex  5.044807e+01  0.000000e+00 -4.357787e-02
     vertex  5.049069e+01  5.623580e-04 -4.357787e-02
   endloop
 endfacet
 facet normal  0.000000e+00  0.000000e+00  1.000000e+00
   outer loop
     vertex  3.905150e+01  0.000000e+00 -4.357787e-02
     vertex  4.105240e+01  0.000000e+00 -4.357787e-02
     vertex  4.105240e+01  1.000000e-03 -4.357787e-02
   endloop
 endfacet
 facet normal  0.000000e+00  0.000000e+00  1.000000e+00
   outer loop
     vertex  3.705059e+01  0.000000e+00 -4.357787e-02
     vertex  3.905150e+01  0.000000e+00 -4.357787e-02
     vertex  3.705059e+01  1.000000e-03 -4.357787e-02
   endloop
 endfacet
 facet normal  0.000000e+00 -0.000000e+00  1.000000e+00
   outer loop
     vertex  5.049778e+01  3.870217e-04 -4.357787e-02
     vertex  5.049810e+01  1.000000e-03 -4.357787e-02
     vertex  5.049742e+01  7.427659e-04 -4.357787e-02
   endloop
 endfacet
 facet normal  0.000000e+00 -0.000000e+00  1.000000e+00
   outer loop
     vertex  3.504969e+01  0.000000e+00 -4.357787e-02
     vertex  3.504969e+01  1.000000e-03 -4.357787e-02
     vertex  3.304878e+01  0.000000e+00 -4.357787e-02
   endloop
 endfacet
 facet normal  0.000000e+00  0.000000e+00  1.000000e+00
   outer loop
     vertex  2.704607e+01  0.000000e+00 -4.357787e-02
     vertex  2.904697e+01  0.000000e+00 -4.357787e-02
     vertex  2.904697e+01  1.000000e-03 -4.357787e-02
   endloop
 endfacet
 facet normal  0.000000e+00  0.000000e+00  1.000000e+00
   outer loop
     vertex  4.998647e-01  5.428152e-04 -4.357787e-02
     vertex  4.993375e-01  7.687069e-04 -4.357787e-02
     vertex  4.993926e-01  4.076509e-04 -4.357787e-02
   endloop
 endfacet
 facet normal  0.000000e+00 -0.000000e+00  1.000000e+00
   outer loop
     vertex  2.704607e+01  0.000000e+00 -4.357787e-02
     vertex  2.704607e+01  1.000000e-03 -4.357787e-02
     vertex  2.504517e+01  0.000000e+00 -4.357787e-02
   endloop
 endfacet
 facet normal  0.000000e+00  0.000000e+00  1.000000e+00
   outer loop
     vertex  2.304426e+01  0.000000e+00 -4.357787e-02
     vertex  2.504517e+01  0.000000e+00 -4.357787e-02
     vertex  2.504517e+01  1.000000e-03 -4.357787e-02
   endloop
 endfacet
 facet normal  0.000000e+00  0.000000e+00  1.000000e+00
   outer loop
     vertex  4.998647e-01  5.428152e-04 -4.357787e-02
     vertex  4.993926e-01  4.076509e-04 -4.357787e-02
     vertex  5.003019e-01  3.328391e-04 -4.357787e-02
   endloop
 endfacet
 facet normal  0.000000e+00  0.000000e+00  1.000000e+00
   outer loop
     vertex  4.989774e-01  1.932564e-04 -4.357787e-02
     vertex  5.003019e-01  3.328391e-04 -4.357787e-02
     vertex  4.993926e-01  4.076509e-04 -4.357787e-02
   endloop
 endfacet
 facet normal  0.000000e+00  0.000000e+00  1.000000e+00
   outer loop
     vertex  1.103884e+01  0.000000e+00 -4.357787e-02
     vertex  1.303974e+01  0.000000e+00 -4.357787e-02
     vertex  1.303974e+01  1.000000e-03 -4.357787e-02
   endloop
 endfacet
 facet normal -0.000000e+00  0.000000e+00  1.000000e+00
   outer loop
     vertex  5.049586e+01  5.378858e-04 -4.357787e-02
     vertex  5.049659e+01  5.146363e-04 -4.357787e-02
     vertex  5.049628e+01  7.567735e-04 -4.357787e-02
   endloop
 endfacet
 facet normal  0.000000e+00  0.000000e+00  1.000000e+00
   outer loop
     vertex  5.049628e+01  7.567735e-04 -4.357787e-02
     vertex  5.049471e+01  5.426114e-04 -4.357787e-02
     vertex  5.049586e+01  5.378858e-04 -4.357787e-02
   endloop
 endfacet
 facet normal  0.000000e+00 -0.000000e+00  1.000000e+00
   outer loop
     vertex  5.049585e+01  3.124417e-04 -4.357787e-02
     vertex  5.049586e+01  5.378858e-04 -4.357787e-02
     vertex  5.049471e+01  5.426114e-04 -4.357787e-02
   endloop
 endfacet
 facet normal  0.000000e+00 -0.000000e+00  1.000000e+00
   outer loop
     vertex  1.103884e+01  0.000000e+00 -4.357787e-02
     vertex  1.103884e+01  1.000000e-03 -4.357787e-02
     vertex  9.037931e+00  0.000000e+00 -4.357787e-02
   endloop
 endfacet
 facet normal  0.000000e+00  0.000000e+00  1.000000e+00
   outer loop
     vertex  7.037027e+00  0.000000e+00 -4.357787e-02
     vertex  9.037931e+00  0.000000e+00 -4.357787e-02
     vertex  9.037931e+00  1.000000e-03 -4.357787e-02
   endloop
 endfacet
 facet normal -0.000000e+00  0.000000e+00  1.000000e+00
   outer loop
     vertex  7.037027e+00  1.000000e-03 -4.357787e-02
     vertex  7.037027e+00  0.000000e+00 -4.357787e-02
     vertex  9.037931e+00  1.000000e-03 -4.357787e-02
   endloop
 endfacet
 facet normal  0.000000e+00  0.000000e+00  1.000000e+00
   outer loop
     vertex  5.291293e+00  0.000000e+00 -4.357787e-02
     vertex  7.037027e+00  0.000000e+00 -4.357787e-02
     vertex  7.037027e+00  1.000000e-03 -4.357787e-02
   endloop
 endfacet
 facet normal  0.000000e+00 -0.000000e+00  1.000000e+00
   outer loop
     vertex  4.505421e+01  0.000000e+00 -4.357787e-02
     vertex  4.505421e+01  1.000000e-03 -4.357787e-02
     vertex  4.305330e+01  0.000000e+00 -4.357787e-02
   endloop
 endfacet
 facet normal -0.000000e+00  0.000000e+00  1.000000e+00
   outer loop
     vertex  4.989632e-01  4.951938e-04 -4.357787e-02
     vertex  4.993926e-01  4.076509e-04 -4.357787e-02
     vertex  4.993375e-01  7.687069e-04 -4.357787e-02
   endloop
 endfacet
 facet normal  0.000000e+00 -0.000000e+00  1.000000e+00
   outer loop
     vertex  4.677173e+01  0.000000e+00 -4.357787e-02
     vertex  4.677173e+01  1.000000e-03 -4.357787e-02
     vertex  4.505421e+01  0.000000e+00 -4.357787e-02
   endloop
 endfacet
 facet normal  0.000000e+00 -0.000000e+00  1.000000e+00
   outer loop
     vertex  4.998647e-01  5.428152e-04 -4.357787e-02
     vertex  5.005288e-01  6.039215e-04 -4.357787e-02
     vertex  4.993375e-01  7.687069e-04 -4.357787e-02
   endloop
 endfacet
 facet normal  0.000000e+00  0.000000e+00  1.000000e+00
   outer loop
     vertex  5.049069e+01  5.623580e-04 -4.357787e-02
     vertex  5.044807e+01  0.000000e+00 -4.357787e-02
     vertex  5.049810e+01  0.000000e+00 -4.357787e-02
   endloop
 endfacet
 facet normal  0.000000e+00  0.000000e+00  1.000000e+00
   outer loop
     vertex  5.003019e-01  3.328391e-04 -4.357787e-02
     vertex  4.989774e-01  1.932564e-04 -4.357787e-02
     vertex  5.015333e-01  2.439294e-04 -4.357787e-02
   endloop
 endfacet
 facet normal -0.000000e+00  0.000000e+00  1.000000e+00
   outer loop
     vertex  5.291293e+00  1.000000e-03 -4.357787e-02
     vertex  5.291293e+00  0.000000e+00 -4.357787e-02
     vertex  7.037027e+00  1.000000e-03 -4.357787e-02
   endloop
 endfacet
 facet normal -0.000000e+00  0.000000e+00  1.000000e+00
   outer loop
     vertex  4.998647e-01  5.428152e-04 -4.357787e-02
     vertex  5.003019e-01  3.328391e-04 -4.357787e-02
     vertex  5.005288e-01  6.039215e-04 -4.357787e-02
   endloop
 endfacet
 facet normal -0.000000e+00  0.000000e+00  1.000000e+00
   outer loop
     vertex  4.986308e-01  6.990538e-04 -4.357787e-02
     vertex  4.989632e-01  4.951938e-04 -4.357787e-02
     vertex  4.993375e-01  7.687069e-04 -4.357787e-02
   endloop
 endfacet
 facet normal  0.000000e+00  0.000000e+00  1.000000e+00
   outer loop
     vertex  5.005288e-01  6.039215e-04 -4.357787e-02
     vertex  5.003019e-01  3.328391e-04 -4.357787e-02
     vertex  5.012739e-01  4.882122e-04 -4.357787e-02
   endloop
 endfacet
 facet normal  0.000000e+00  0.000000e+00  1.000000e+00
   outer loop
     vertex  5.015333e-01  2.439294e-04 -4.357787e-02
     vertex  4.989774e-01  1.932564e-04 -4.357787e-02
     vertex  4.980973e-01  0.000000e+00 -4.357787e-02
   endloop
 endfacet
 facet normal  0.000000e+00  0.000000e+00  1.000000e+00
   outer loop
     vertex  4.993375e-01  7.687069e-04 -4.357787e-02
     vertex  5.005288e-01  6.039215e-04 -4.357787e-02
     vertex  5.017891e-01  6.933596e-04 -4.357787e-02
   endloop
 endfacet
 facet normal  0.000000e+00  0.000000e+00  1.000000e+00
   outer loop
     vertex  5.017891e-01  6.933596e-04 -4.357787e-02
     vertex  5.005288e-01  6.039215e-04 -4.357787e-02
     vertex  5.012739e-01  4.882122e-04 -4.357787e-02
   endloop
 endfacet
 facet normal -0.000000e+00  0.000000e+00  1.000000e+00
   outer loop
     vertex  5.003019e-01  3.328391e-04 -4.357787e-02
     vertex  5.015333e-01  2.439294e-04 -4.357787e-02
     vertex  5.012739e-01  4.882122e-04 -4.357787e-02
   endloop
 endfacet
 facet normal  0.000000e+00 -0.000000e+00  1.000000e+00
   outer loop
     vertex  5.015333e-01  2.439294e-04 -4.357787e-02
     vertex  5.017891e-01  6.933596e-04 -4.357787e-02
     vertex  5.012739e-01  4.882122e-04 -4.357787e-02
   endloop
 endfacet
 facet normal -0.000000e+00  0.000000e+00  1.000000e+00
   outer loop
     vertex  4.794189e+01  1.000000e-03 -4.357787e-02
     vertex  4.794189e+01  0.000000e+00 -4.357787e-02
     vertex  4.867515e+01  1.000000e-03 -4.357787e-02
   endloop
 endfacet
 facet normal  0.000000e+00  0.000000e+00  1.000000e+00
   outer loop
     vertex  3.884340e+00  0.000000e+00 -4.357787e-02
     vertex  5.291293e+00  0.000000e+00 -4.357787e-02
     vertex  5.291293e+00  1.000000e-03 -4.357787e-02
   endloop
 endfacet
 facet normal  0.000000e+00 -0.000000e+00  1.000000e+00
   outer loop
     vertex  4.794189e+01  0.000000e+00 -4.357787e-02
     vertex  4.794189e+01  1.000000e-03 -4.357787e-02
     vertex  4.677173e+01  0.000000e+00 -4.357787e-02
   endloop
 endfacet
 facet normal -0.000000e+00  0.000000e+00  1.000000e+00
   outer loop
     vertex  3.884340e+00  1.000000e-03 -4.357787e-02
     vertex  3.884340e+00  0.000000e+00 -4.357787e-02
     vertex  5.291293e+00  1.000000e-03 -4.357787e-02
   endloop
 endfacet
 facet normal  0.000000e+00  0.000000e+00  1.000000e+00
   outer loop
     vertex  4.980973e-01  0.000000e+00 -4.357787e-02
     vertex  5.481200e-01  0.000000e+00 -4.357787e-02
     vertex  5.105137e-01  4.185371e-04 -4.357787e-02
   endloop
 endfacet
 facet normal  0.000000e+00  0.000000e+00  1.000000e+00
   outer loop
     vertex  6.510342e-01  0.000000e+00 -4.357787e-02
     vertex  7.315390e-01  0.000000e+00 -4.357787e-02
     vertex  7.315390e-01  1.000000e-03 -4.357787e-02
   endloop
 endfacet
 facet normal  0.000000e+00  0.000000e+00  1.000000e+00
   outer loop
     vertex  5.015333e-01  2.439294e-04 -4.357787e-02
     vertex  5.023357e-01  4.566380e-04 -4.357787e-02
     vertex  5.017891e-01  6.933596e-04 -4.357787e-02
   endloop
 endfacet
 facet normal  0.000000e+00  0.000000e+00  1.000000e+00
   outer loop
     vertex  2.823360e+00  0.000000e+00 -4.357787e-02
     vertex  3.884340e+00  0.000000e+00 -4.357787e-02
     vertex  3.884340e+00  1.000000e-03 -4.357787e-02
   endloop
 endfacet
 facet normal  0.000000e+00  0.000000e+00  1.000000e+00
   outer loop
     vertex  5.105137e-01  4.185371e-04 -4.357787e-02
     vertex  4.980973e-01  1.000000e-03 -4.357787e-02
     vertex  5.017891e-01  6.933596e-04 -4.357787e-02
   endloop
 endfacet
 facet normal -0.000000e+00  0.000000e+00  1.000000e+00
   outer loop
     vertex  7.315390e-01  1.000000e-03 -4.357787e-02
     vertex  7.315390e-01  0.000000e+00 -4.357787e-02
     vertex  8.389409e-01  1.000000e-03 -4.357787e-02
   endloop
 endfacet
 facet normal  0.000000e+00 -0.000000e+00  1.000000e+00
   outer loop
     vertex  5.034798e+01  0.000000e+00 -4.357787e-02
     vertex  5.034798e+01  1.000000e-03 -4.357787e-02
     vertex  5.026004e+01  0.000000e+00 -4.357787e-02
   endloop
 endfacet
 facet normal -0.000000e+00 -0.000000e+00  1.000000e+00
   outer loop
     vertex  5.040849e-01  4.443689e-04 -4.357787e-02
     vertex  5.105137e-01  4.185371e-04 -4.357787e-02
     vertex  5.017891e-01  6.933596e-04 -4.357787e-02
   endloop
 endfacet
 facet normal  0.000000e+00  0.000000e+00  1.000000e+00
   outer loop
     vertex  5.023357e-01  4.566380e-04 -4.357787e-02
     vertex  5.015333e-01  2.439294e-04 -4.357787e-02
     vertex  5.040849e-01  4.443689e-04 -4.357787e-02
   endloop
 endfacet
 facet normal  0.000000e+00  0.000000e+00  1.000000e+00
   outer loop
     vertex  5.049810e+01  1.000000e-03 -4.357787e-02
     vertex  5.044807e+01  1.000000e-03 -4.357787e-02
     vertex  5.049069e+01  5.623580e-04 -4.357787e-02
   endloop
 endfacet
 facet normal  0.000000e+00  0.000000e+00  1.000000e+00
   outer loop
     vertex  5.040849e-01  4.443689e-04 -4.357787e-02
     vertex  5.017891e-01  6.933596e-04 -4.357787e-02
     vertex  5.023357e-01  4.566380e-04 -4.357787e-02
   endloop
 endfacet
 facet normal  0.000000e+00 -0.000000e+00  1.000000e+00
   outer loop
     vertex  5.026004e+01  0.000000e+00 -4.357787e-02
     vertex  5.026004e+01  1.000000e-03 -4.357787e-02
     vertex  5.016502e+01  0.000000e+00 -4.357787e-02
   endloop
 endfacet
 facet normal  0.000000e+00  0.000000e+00  1.000000e+00
   outer loop
     vertex  5.105137e-01  4.185371e-04 -4.357787e-02
     vertex  5.040849e-01  4.443689e-04 -4.357787e-02
     vertex  5.015333e-01  2.439294e-04 -4.357787e-02
   endloop
 endfacet
 facet normal  0.000000e+00  0.000000e+00  1.000000e+00
   outer loop
     vertex  7.315390e-01  0.000000e+00 -4.357787e-02
     vertex  8.389409e-01  0.000000e+00 -4.357787e-02
     vertex  8.389409e-01  1.000000e-03 -4.357787e-02
   endloop
 endfacet
 facet normal -0.000000e+00  0.000000e+00  1.000000e+00
   outer loop
     vertex  8.389409e-01  1.000000e-03 -4.357787e-02
     vertex  8.389409e-01  0.000000e+00 -4.357787e-02
     vertex  1.023939e+00  1.000000e-03 -4.357787e-02
   endloop
 endfacet
 facet normal  0.000000e+00  0.000000e+00  1.000000e+00
   outer loop
     vertex  4.980973e-01  0.000000e+00 -4.357787e-02
     vertex  5.105137e-01  4.185371e-04 -4.357787e-02
     vertex  5.015333e-01  2.439294e-04 -4.357787e-02
   endloop
 endfacet
 facet normal  0.000000e+00  0.000000e+00  1.000000e+00
   outer loop
     vertex  4.918265e+01  1.000000e-03 -4.357787e-02
     vertex  4.867515e+01  1.000000e-03 -4.357787e-02
     vertex  4.867515e+01  0.000000e+00 -4.357787e-02
   endloop
 endfacet
 facet normal -0.000000e+00  0.000000e+00  1.000000e+00
   outer loop
     vertex  2.823360e+00  1.000000e-03 -4.357787e-02
     vertex  2.823360e+00  0.000000e+00 -4.357787e-02
     vertex  3.884340e+00  1.000000e-03 -4.357787e-02
   endloop
 endfacet
 facet normal  0.000000e+00  0.000000e+00  1.000000e+00
   outer loop
     vertex  2.074159e+00  0.000000e+00 -4.357787e-02
     vertex  2.823360e+00  0.000000e+00 -4.357787e-02
     vertex  2.823360e+00  1.000000e-03 -4.357787e-02
   endloop
 endfacet
 facet normal  0.000000e+00 -0.000000e+00  1.000000e+00
   outer loop
     vertex  5.016502e+01  0.000000e+00 -4.357787e-02
     vertex  5.016502e+01  1.000000e-03 -4.357787e-02
     vertex  5.001239e+01  0.000000e+00 -4.357787e-02
   endloop
 endfacet
 facet normal  0.000000e+00 -0.000000e+00  1.000000e+00
   outer loop
     vertex  4.867515e+01  0.000000e+00 -4.357787e-02
     vertex  4.867515e+01  1.000000e-03 -4.357787e-02
     vertex  4.794189e+01  0.000000e+00 -4.357787e-02
   endloop
 endfacet
 facet normal -0.000000e+00  0.000000e+00  1.000000e+00
   outer loop
     vertex  4.918265e+01  1.000000e-03 -4.357787e-02
     vertex  4.918265e+01  0.000000e+00 -4.357787e-02
     vertex  4.956006e+01  1.000000e-03 -4.357787e-02
   endloop
 endfacet
 facet normal -0.000000e+00  0.000000e+00  1.000000e+00
   outer loop
     vertex  5.034798e+01  1.000000e-03 -4.357787e-02
     vertex  5.034798e+01  0.000000e+00 -4.357787e-02
     vertex  5.039805e+01  1.000000e-03 -4.357787e-02
   endloop
 endfacet
 facet normal  0.000000e+00  0.000000e+00  1.000000e+00
   outer loop
     vertex  5.017891e-01  6.933596e-04 -4.357787e-02
     vertex  4.980973e-01  1.000000e-03 -4.357787e-02
     vertex  4.993375e-01  7.687069e-04 -4.357787e-02
   endloop
 endfacet
 facet normal  0.000000e+00 -0.000000e+00  1.000000e+00
   outer loop
     vertex  5.105137e-01  4.185371e-04 -4.357787e-02
     vertex  5.481200e-01  1.000000e-03 -4.357787e-02
     vertex  4.980973e-01  1.000000e-03 -4.357787e-02
   endloop
 endfacet
 facet normal -0.000000e+00  0.000000e+00  1.000000e+00
   outer loop
     vertex  5.026004e+01  1.000000e-03 -4.357787e-02
     vertex  5.026004e+01  0.000000e+00 -4.357787e-02
     vertex  5.034798e+01  1.000000e-03 -4.357787e-02
   endloop
 endfacet
 facet normal  0.000000e+00  0.000000e+00  1.000000e+00
   outer loop
     vertex  8.389409e-01  0.000000e+00 -4.357787e-02
     vertex  1.023939e+00  0.000000e+00 -4.357787e-02
     vertex  1.023939e+00  1.000000e-03 -4.357787e-02
   endloop
 endfacet
 facet normal -0.000000e+00  0.000000e+00  1.000000e+00
   outer loop
     vertex  1.023939e+00  1.000000e-03 -4.357787e-02
     vertex  1.023939e+00  0.000000e+00 -4.357787e-02
     vertex  1.283953e+00  1.000000e-03 -4.357787e-02
   endloop
 endfacet
 facet normal -0.000000e+00  0.000000e+00  1.000000e+00
   outer loop
     vertex  5.016502e+01  1.000000e-03 -4.357787e-02
     vertex  5.016502e+01  0.000000e+00 -4.357787e-02
     vertex  5.026004e+01  1.000000e-03 -4.357787e-02
   endloop
 endfacet
 facet normal  0.000000e+00 -0.000000e+00  1.000000e+00
   outer loop
     vertex  5.001239e+01  0.000000e+00 -4.357787e-02
     vertex  5.001239e+01  1.000000e-03 -4.357787e-02
     vertex  4.982383e+01  0.000000e+00 -4.357787e-02
   endloop
 endfacet
 facet normal  0.000000e+00  0.000000e+00  1.000000e+00
   outer loop
     vertex  5.049810e+01  1.000000e-03 -4.357787e-02
     vertex  5.049069e+01  5.623580e-04 -4.357787e-02
     vertex  5.049628e+01  7.567735e-04 -4.357787e-02
   endloop
 endfacet
 facet normal -0.000000e+00  0.000000e+00  1.000000e+00
   outer loop
     vertex  4.956006e+01  1.000000e-03 -4.357787e-02
     vertex  4.956006e+01  0.000000e+00 -4.357787e-02
     vertex  4.982383e+01  1.000000e-03 -4.357787e-02
   endloop
 endfacet
 facet normal  0.000000e+00 -0.000000e+00  1.000000e+00
   outer loop
     vertex  4.986308e-01  6.990538e-04 -4.357787e-02
     vertex  4.993375e-01  7.687069e-04 -4.357787e-02
     vertex  4.980973e-01  1.000000e-03 -4.357787e-02
   endloop
 endfacet
 facet normal  0.000000e+00  0.000000e+00  1.000000e+00
   outer loop
     vertex  5.049069e+01  5.623580e-04 -4.357787e-02
     vertex  5.049585e+01  3.124417e-04 -4.357787e-02
     vertex  5.049471e+01  5.426114e-04 -4.357787e-02
   endloop
 endfacet
 facet normal -0.000000e+00  0.000000e+00  1.000000e+00
   outer loop
     vertex  2.074159e+00  1.000000e-03 -4.357787e-02
     vertex  2.074159e+00  0.000000e+00 -4.357787e-02
     vertex  2.823360e+00  1.000000e-03 -4.357787e-02
   endloop
 endfacet
 facet normal  0.000000e+00  0.000000e+00  1.000000e+00
   outer loop
     vertex  1.635693e+00  0.000000e+00 -4.357787e-02
     vertex  2.074159e+00  0.000000e+00 -4.357787e-02
     vertex  2.074159e+00  1.000000e-03 -4.357787e-02
   endloop
 endfacet
 facet normal  0.000000e+00  0.000000e+00  1.000000e+00
   outer loop
     vertex  5.049585e+01  3.124417e-04 -4.357787e-02
     vertex  5.049069e+01  5.623580e-04 -4.357787e-02
     vertex  5.049810e+01  0.000000e+00 -4.357787e-02
   endloop
 endfacet
 facet normal  0.000000e+00 -0.000000e+00  1.000000e+00
   outer loop
     vertex  5.049742e+01  7.427659e-04 -4.357787e-02
     vertex  5.049810e+01  1.000000e-03 -4.357787e-02
     vertex  5.049628e+01  7.567735e-04 -4.357787e-02
   endloop
 endfacet
 facet normal  0.000000e+00 -0.000000e+00  1.000000e+00
   outer loop
     vertex  4.918265e+01  0.000000e+00 -4.357787e-02
     vertex  4.918265e+01  1.000000e-03 -4.357787e-02
     vertex  4.867515e+01  0.000000e+00 -4.357787e-02
   endloop
 endfacet
 facet normal  0.000000e+00  0.000000e+00  1.000000e+00
   outer loop
     vertex  1.023939e+00  0.000000e+00 -4.357787e-02
     vertex  1.283953e+00  0.000000e+00 -4.357787e-02
     vertex  1.283953e+00  1.000000e-03 -4.357787e-02
   endloop
 endfacet
 facet normal  0.000000e+00 -0.000000e+00  1.000000e+00
   outer loop
     vertex  4.982383e+01  0.000000e+00 -4.357787e-02
     vertex  4.982383e+01  1.000000e-03 -4.357787e-02
     vertex  4.956006e+01  0.000000e+00 -4.357787e-02
   endloop
 endfacet
 facet normal  0.000000e+00 -0.000000e+00  1.000000e+00
   outer loop
     vertex  4.956006e+01  0.000000e+00 -4.357787e-02
     vertex  4.956006e+01  1.000000e-03 -4.357787e-02
     vertex  4.918265e+01  0.000000e+00 -4.357787e-02
   endloop
 endfacet
 facet normal -0.000000e+00  0.000000e+00  1.000000e+00
   outer loop
     vertex  1.283953e+00  1.000000e-03 -4.357787e-02
     vertex  1.283953e+00  0.000000e+00 -4.357787e-02
     vertex  1.635693e+00  1.000000e-03 -4.357787e-02
   endloop
 endfacet
 facet normal -0.000000e+00  0.000000e+00  1.000000e+00
   outer loop
     vertex  5.001239e+01  1.000000e-03 -4.357787e-02
     vertex  5.001239e+01  0.000000e+00 -4.357787e-02
     vertex  5.016502e+01  1.000000e-03 -4.357787e-02
   endloop
 endfacet
 facet normal -0.000000e+00  0.000000e+00  1.000000e+00
   outer loop
     vertex  4.982383e+01  1.000000e-03 -4.357787e-02
     vertex  4.982383e+01  0.000000e+00 -4.357787e-02
     vertex  5.001239e+01  1.000000e-03 -4.357787e-02
   endloop
 endfacet
 facet normal -0.000000e+00  0.000000e+00  1.000000e+00
   outer loop
     vertex  1.635693e+00  1.000000e-03 -4.357787e-02
     vertex  1.635693e+00  0.000000e+00 -4.357787e-02
     vertex  2.074159e+00  1.000000e-03 -4.357787e-02
   endloop
 endfacet
 facet normal -0.000000e+00  0.000000e+00  1.000000e+00
   outer loop
     vertex  5.049069e+01  5.623580e-04 -4.357787e-02
     vertex  5.049471e+01  5.426114e-04 -4.357787e-02
     vertex  5.049628e+01  7.567735e-04 -4.357787e-02
   endloop
 endfacet
 facet normal  0.000000e+00  0.000000e+00  1.000000e+00
   outer loop
     vertex  1.283953e+00  0.000000e+00 -4.357787e-02
     vertex  1.635693e+00  0.000000e+00 -4.357787e-02
     vertex  1.635693e+00  1.000000e-03 -4.357787e-02
   endloop
 endfacet
endsolid Extrusion_Wake
